<?xml version="1.0" encoding="UTF-8" standalone="no"?>
<!DOCTYPE svg PUBLIC "-//W3C//DTD SVG 1.1//EN"
 "http://www.w3.org/Graphics/SVG/1.1/DTD/svg11.dtd">
<!-- Generated by graphviz version 2.38.0 (20140413.2041)
 -->
<!-- Pages: 1 -->
<svg width="2133pt" height="620pt"
 viewBox="0.00 0.00 2133.15 620.00" xmlns="http://www.w3.org/2000/svg" xmlns:xlink="http://www.w3.org/1999/xlink">
<g id="graph0" class="graph" transform="scale(1 1) rotate(0) translate(4 616)">
<polygon fill="white" stroke="none" points="-4,4 -4,-616 2129.15,-616 2129.15,4 -4,4"/>
<!-- AST0 -->
<g id="node1" class="node"><title>AST0</title>
<ellipse fill="none" stroke="black" cx="321.147" cy="-594" rx="28.6953" ry="18"/>
<text text-anchor="middle" x="321.147" y="-590.3" font-family="Times New Roman,serif" font-size="14.00">AST</text>
</g>
<!-- clase1 -->
<g id="node2" class="node"><title>clase1</title>
<ellipse fill="none" stroke="black" cx="321.147" cy="-522" rx="28.6953" ry="18"/>
<text text-anchor="middle" x="321.147" y="-518.3" font-family="Times New Roman,serif" font-size="14.00">clase</text>
</g>
<!-- AST0&#45;&#45;clase1 -->
<g id="edge1" class="edge"><title>AST0&#45;&#45;clase1</title>
<path fill="none" stroke="black" d="M321.147,-575.697C321.147,-564.846 321.147,-550.917 321.147,-540.104"/>
</g>
<!-- Res_Public2 -->
<g id="node3" class="node"><title>Res_Public2</title>
<ellipse fill="none" stroke="black" cx="116.147" cy="-450" rx="33.2948" ry="18"/>
<text text-anchor="middle" x="116.147" y="-446.3" font-family="Times New Roman,serif" font-size="14.00">public</text>
</g>
<!-- clase1&#45;&#45;Res_Public2 -->
<g id="edge2" class="edge"><title>clase1&#45;&#45;Res_Public2</title>
<path fill="none" stroke="black" d="M295.828,-513.372C263.617,-503.53 206.375,-485.577 158.147,-468 152.826,-466.061 147.175,-463.867 141.802,-461.717"/>
</g>
<!-- Res_Class3 -->
<g id="node4" class="node"><title>Res_Class3</title>
<ellipse fill="none" stroke="black" cx="196.147" cy="-450" rx="28.6953" ry="18"/>
<text text-anchor="middle" x="196.147" y="-446.3" font-family="Times New Roman,serif" font-size="14.00">class</text>
</g>
<!-- clase1&#45;&#45;Res_Class3 -->
<g id="edge3" class="edge"><title>clase1&#45;&#45;Res_Class3</title>
<path fill="none" stroke="black" d="M300.506,-509.441C277.345,-496.471 239.992,-475.553 216.819,-462.576"/>
</g>
<!-- identificador4 -->
<g id="node5" class="node"><title>identificador4</title>
<ellipse fill="none" stroke="black" cx="280.147" cy="-450" rx="37.0935" ry="18"/>
<text text-anchor="middle" x="280.147" y="-446.3" font-family="Times New Roman,serif" font-size="14.00">entrada</text>
</g>
<!-- clase1&#45;&#45;identificador4 -->
<g id="edge4" class="edge"><title>clase1&#45;&#45;identificador4</title>
<path fill="none" stroke="black" d="M311.638,-504.765C305.109,-493.618 296.468,-478.865 289.889,-467.633"/>
</g>
<!-- Llave_Abierta5 -->
<g id="node6" class="node"><title>Llave_Abierta5</title>
<ellipse fill="none" stroke="black" cx="362.147" cy="-450" rx="27" ry="18"/>
<text text-anchor="middle" x="362.147" y="-446.3" font-family="Times New Roman,serif" font-size="14.00">{</text>
</g>
<!-- clase1&#45;&#45;Llave_Abierta5 -->
<g id="edge5" class="edge"><title>clase1&#45;&#45;Llave_Abierta5</title>
<path fill="none" stroke="black" d="M330.656,-504.765C337.28,-493.456 346.077,-478.437 352.689,-467.147"/>
</g>
<!-- Lista_Instrucciones6 -->
<g id="node7" class="node"><title>Lista_Instrucciones6</title>
<ellipse fill="none" stroke="black" cx="489.147" cy="-450" rx="81.7856" ry="18"/>
<text text-anchor="middle" x="489.147" y="-446.3" font-family="Times New Roman,serif" font-size="14.00">Lista_Instrucciones</text>
</g>
<!-- clase1&#45;&#45;Lista_Instrucciones6 -->
<g id="edge6" class="edge"><title>clase1&#45;&#45;Lista_Instrucciones6</title>
<path fill="none" stroke="black" d="M344.507,-511.267C372.546,-499.584 419.889,-479.858 452.739,-466.17"/>
</g>
<!-- Llave_Cerrada64 -->
<g id="node56" class="node"><title>Llave_Cerrada64</title>
<ellipse fill="none" stroke="black" cx="616.147" cy="-450" rx="27" ry="18"/>
<text text-anchor="middle" x="616.147" y="-446.3" font-family="Times New Roman,serif" font-size="14.00">}</text>
</g>
<!-- clase1&#45;&#45;Llave_Cerrada64 -->
<g id="edge55" class="edge"><title>clase1&#45;&#45;Llave_Cerrada64</title>
<path fill="none" stroke="black" d="M348.933,-517.54C396.976,-511.069 498.282,-495.267 580.147,-468 585.262,-466.296 590.602,-464.053 595.555,-461.756"/>
</g>
<!-- METODO_MAIN7 -->
<g id="node8" class="node"><title>METODO_MAIN7</title>
<ellipse fill="none" stroke="black" cx="489.147" cy="-378" rx="77.9862" ry="18"/>
<text text-anchor="middle" x="489.147" y="-374.3" font-family="Times New Roman,serif" font-size="14.00">METODO_MAIN</text>
</g>
<!-- Lista_Instrucciones6&#45;&#45;METODO_MAIN7 -->
<g id="edge7" class="edge"><title>Lista_Instrucciones6&#45;&#45;METODO_MAIN7</title>
<path fill="none" stroke="black" d="M489.147,-431.697C489.147,-420.846 489.147,-406.917 489.147,-396.104"/>
</g>
<!-- Res_Public8 -->
<g id="node9" class="node"><title>Res_Public8</title>
<ellipse fill="none" stroke="black" cx="33.1471" cy="-306" rx="33.2948" ry="18"/>
<text text-anchor="middle" x="33.1471" y="-302.3" font-family="Times New Roman,serif" font-size="14.00">public</text>
</g>
<!-- METODO_MAIN7&#45;&#45;Res_Public8 -->
<g id="edge8" class="edge"><title>METODO_MAIN7&#45;&#45;Res_Public8</title>
<path fill="none" stroke="black" d="M413.628,-373.17C329.783,-367.578 190.989,-354.316 75.1471,-324 69.3634,-322.486 63.3122,-320.373 57.6619,-318.15"/>
</g>
<!-- Res_Static9 -->
<g id="node10" class="node"><title>Res_Static9</title>
<ellipse fill="none" stroke="black" cx="114.147" cy="-306" rx="29.795" ry="18"/>
<text text-anchor="middle" x="114.147" y="-302.3" font-family="Times New Roman,serif" font-size="14.00">static</text>
</g>
<!-- METODO_MAIN7&#45;&#45;Res_Static9 -->
<g id="edge9" class="edge"><title>METODO_MAIN7&#45;&#45;Res_Static9</title>
<path fill="none" stroke="black" d="M417.198,-370.998C348.363,-364.01 242.155,-349.957 153.147,-324 147.758,-322.428 142.132,-320.292 136.883,-318.064"/>
</g>
<!-- Res_Void10 -->
<g id="node11" class="node"><title>Res_Void10</title>
<ellipse fill="none" stroke="black" cx="189.147" cy="-306" rx="27" ry="18"/>
<text text-anchor="middle" x="189.147" y="-302.3" font-family="Times New Roman,serif" font-size="14.00">void</text>
</g>
<!-- METODO_MAIN7&#45;&#45;Res_Void10 -->
<g id="edge10" class="edge"><title>METODO_MAIN7&#45;&#45;Res_Void10</title>
<path fill="none" stroke="black" d="M423.177,-368.31C369.066,-360.106 290.94,-345.778 225.147,-324 220.029,-322.306 214.688,-320.066 209.734,-317.77"/>
</g>
<!-- Res_Main11 -->
<g id="node12" class="node"><title>Res_Main11</title>
<ellipse fill="none" stroke="black" cx="262.147" cy="-306" rx="27.8951" ry="18"/>
<text text-anchor="middle" x="262.147" y="-302.3" font-family="Times New Roman,serif" font-size="14.00">main</text>
</g>
<!-- METODO_MAIN7&#45;&#45;Res_Main11 -->
<g id="edge11" class="edge"><title>METODO_MAIN7&#45;&#45;Res_Main11</title>
<path fill="none" stroke="black" d="M436.425,-364.686C397.893,-355.111 344.644,-340.678 299.147,-324 294.103,-322.151 288.792,-319.901 283.819,-317.652"/>
</g>
<!-- Parentesis_Abierto12 -->
<g id="node13" class="node"><title>Parentesis_Abierto12</title>
<ellipse fill="none" stroke="black" cx="335.147" cy="-306" rx="27" ry="18"/>
<text text-anchor="middle" x="335.147" y="-302.3" font-family="Times New Roman,serif" font-size="14.00">(</text>
</g>
<!-- METODO_MAIN7&#45;&#45;Parentesis_Abierto12 -->
<g id="edge12" class="edge"><title>METODO_MAIN7&#45;&#45;Parentesis_Abierto12</title>
<path fill="none" stroke="black" d="M454.732,-361.749C431.154,-351.25 399.194,-336.919 371.147,-324 366.376,-321.802 361.265,-319.411 356.436,-317.135"/>
</g>
<!-- Tipo13 -->
<g id="node14" class="node"><title>Tipo13</title>
<ellipse fill="none" stroke="black" cx="412.147" cy="-306" rx="32.4942" ry="18"/>
<text text-anchor="middle" x="412.147" y="-302.3" font-family="Times New Roman,serif" font-size="14.00">String</text>
</g>
<!-- METODO_MAIN7&#45;&#45;Tipo13 -->
<g id="edge13" class="edge"><title>METODO_MAIN7&#45;&#45;Tipo13</title>
<path fill="none" stroke="black" d="M470.899,-360.411C458.002,-348.686 440.866,-333.108 428.431,-321.804"/>
</g>
<!-- Corchete_Abierto14 -->
<g id="node15" class="node"><title>Corchete_Abierto14</title>
<ellipse fill="none" stroke="black" cx="489.147" cy="-306" rx="27" ry="18"/>
<text text-anchor="middle" x="489.147" y="-302.3" font-family="Times New Roman,serif" font-size="14.00">[</text>
</g>
<!-- METODO_MAIN7&#45;&#45;Corchete_Abierto14 -->
<g id="edge14" class="edge"><title>METODO_MAIN7&#45;&#45;Corchete_Abierto14</title>
<path fill="none" stroke="black" d="M489.147,-359.697C489.147,-348.846 489.147,-334.917 489.147,-324.104"/>
</g>
<!-- Corchete_Cerrado15 -->
<g id="node16" class="node"><title>Corchete_Cerrado15</title>
<ellipse fill="none" stroke="black" cx="561.147" cy="-306" rx="27" ry="18"/>
<text text-anchor="middle" x="561.147" y="-302.3" font-family="Times New Roman,serif" font-size="14.00">]</text>
</g>
<!-- METODO_MAIN7&#45;&#45;Corchete_Cerrado15 -->
<g id="edge15" class="edge"><title>METODO_MAIN7&#45;&#45;Corchete_Cerrado15</title>
<path fill="none" stroke="black" d="M506.21,-360.411C518.353,-348.606 534.514,-332.893 546.16,-321.57"/>
</g>
<!-- Res_args16 -->
<g id="node17" class="node"><title>Res_args16</title>
<ellipse fill="none" stroke="black" cx="633.147" cy="-306" rx="27" ry="18"/>
<text text-anchor="middle" x="633.147" y="-302.3" font-family="Times New Roman,serif" font-size="14.00">args</text>
</g>
<!-- METODO_MAIN7&#45;&#45;Res_args16 -->
<g id="edge16" class="edge"><title>METODO_MAIN7&#45;&#45;Res_args16</title>
<path fill="none" stroke="black" d="M521.105,-361.465C548.78,-348.012 588.028,-328.933 611.972,-317.293"/>
</g>
<!-- Parentesis_Cerrado17 -->
<g id="node18" class="node"><title>Parentesis_Cerrado17</title>
<ellipse fill="none" stroke="black" cx="705.147" cy="-306" rx="27" ry="18"/>
<text text-anchor="middle" x="705.147" y="-302.3" font-family="Times New Roman,serif" font-size="14.00">)</text>
</g>
<!-- METODO_MAIN7&#45;&#45;Parentesis_Cerrado17 -->
<g id="edge17" class="edge"><title>METODO_MAIN7&#45;&#45;Parentesis_Cerrado17</title>
<path fill="none" stroke="black" d="M539.884,-364.314C576.331,-354.659 626.372,-340.285 669.147,-324 674.056,-322.131 679.224,-319.873 684.063,-317.623"/>
</g>
<!-- Llave_Abierta18 -->
<g id="node19" class="node"><title>Llave_Abierta18</title>
<ellipse fill="none" stroke="black" cx="777.147" cy="-306" rx="27" ry="18"/>
<text text-anchor="middle" x="777.147" y="-302.3" font-family="Times New Roman,serif" font-size="14.00">{</text>
</g>
<!-- METODO_MAIN7&#45;&#45;Llave_Abierta18 -->
<g id="edge18" class="edge"><title>METODO_MAIN7&#45;&#45;Llave_Abierta18</title>
<path fill="none" stroke="black" d="M553.418,-367.744C605.008,-359.305 678.852,-344.937 741.147,-324 746.257,-322.282 751.596,-320.033 756.548,-317.736"/>
</g>
<!-- Lista_Instrucciones19 -->
<g id="node20" class="node"><title>Lista_Instrucciones19</title>
<ellipse fill="none" stroke="black" cx="904.147" cy="-306" rx="81.7856" ry="18"/>
<text text-anchor="middle" x="904.147" y="-302.3" font-family="Times New Roman,serif" font-size="14.00">Lista_Instrucciones</text>
</g>
<!-- METODO_MAIN7&#45;&#45;Lista_Instrucciones19 -->
<g id="edge19" class="edge"><title>METODO_MAIN7&#45;&#45;Lista_Instrucciones19</title>
<path fill="none" stroke="black" d="M551.633,-367.207C616.934,-356.872 722.336,-339.908 813.147,-324 823.279,-322.225 834.032,-320.275 844.463,-318.349"/>
</g>
<!-- Llave_Cerrada61 -->
<g id="node55" class="node"><title>Llave_Cerrada61</title>
<ellipse fill="none" stroke="black" cx="1031.15" cy="-306" rx="27" ry="18"/>
<text text-anchor="middle" x="1031.15" y="-302.3" font-family="Times New Roman,serif" font-size="14.00">}</text>
</g>
<!-- METODO_MAIN7&#45;&#45;Llave_Cerrada61 -->
<g id="edge54" class="edge"><title>METODO_MAIN7&#45;&#45;Llave_Cerrada61</title>
<path fill="none" stroke="black" d="M567.383,-376.889C668.126,-374.926 847.777,-365.226 995.147,-324 1000.34,-322.548 1005.71,-320.402 1010.67,-318.121"/>
</g>
<!-- DECLARACION20 -->
<g id="node21" class="node"><title>DECLARACION20</title>
<ellipse fill="none" stroke="black" cx="395.147" cy="-234" rx="75.2868" ry="18"/>
<text text-anchor="middle" x="395.147" y="-230.3" font-family="Times New Roman,serif" font-size="14.00">DECLARACION</text>
</g>
<!-- Lista_Instrucciones19&#45;&#45;DECLARACION20 -->
<g id="edge20" class="edge"><title>Lista_Instrucciones19&#45;&#45;DECLARACION20</title>
<path fill="none" stroke="black" d="M845.003,-293.432C834.414,-291.509 823.468,-289.617 813.147,-288 689.748,-268.668 545.002,-251.546 462.283,-242.286"/>
</g>
<!-- IMPRIMIR38 -->
<g id="node35" class="node"><title>IMPRIMIR38</title>
<ellipse fill="none" stroke="black" cx="904.147" cy="-234" rx="53.0913" ry="18"/>
<text text-anchor="middle" x="904.147" y="-230.3" font-family="Times New Roman,serif" font-size="14.00">IMPRIMIR</text>
</g>
<!-- Lista_Instrucciones19&#45;&#45;IMPRIMIR38 -->
<g id="edge34" class="edge"><title>Lista_Instrucciones19&#45;&#45;IMPRIMIR38</title>
<path fill="none" stroke="black" d="M904.147,-287.697C904.147,-276.846 904.147,-262.917 904.147,-252.104"/>
</g>
<!-- IMPRIMIR49 -->
<g id="node45" class="node"><title>IMPRIMIR49</title>
<ellipse fill="none" stroke="black" cx="1649.15" cy="-234" rx="53.0913" ry="18"/>
<text text-anchor="middle" x="1649.15" y="-230.3" font-family="Times New Roman,serif" font-size="14.00">IMPRIMIR</text>
</g>
<!-- Lista_Instrucciones19&#45;&#45;IMPRIMIR49 -->
<g id="edge44" class="edge"><title>Lista_Instrucciones19&#45;&#45;IMPRIMIR49</title>
<path fill="none" stroke="black" d="M962.257,-293.215C973.154,-291.269 984.474,-289.426 995.147,-288 1217.58,-258.292 1484.96,-242.921 1596.39,-237.414"/>
</g>
<!-- Tipo21 -->
<g id="node22" class="node"><title>Tipo21</title>
<ellipse fill="none" stroke="black" cx="225.147" cy="-162" rx="27" ry="18"/>
<text text-anchor="middle" x="225.147" y="-158.3" font-family="Times New Roman,serif" font-size="14.00">int</text>
</g>
<!-- DECLARACION20&#45;&#45;Tipo21 -->
<g id="edge21" class="edge"><title>DECLARACION20&#45;&#45;Tipo21</title>
<path fill="none" stroke="black" d="M356.466,-218.46C329.553,-208.16 292.94,-193.777 261.147,-180 256.327,-177.911 251.196,-175.565 246.364,-173.297"/>
</g>
<!-- Lista_id22 -->
<g id="node23" class="node"><title>Lista_id22</title>
<ellipse fill="none" stroke="black" cx="310.147" cy="-162" rx="40.0939" ry="18"/>
<text text-anchor="middle" x="310.147" y="-158.3" font-family="Times New Roman,serif" font-size="14.00">Lista_id</text>
</g>
<!-- DECLARACION20&#45;&#45;Lista_id22 -->
<g id="edge22" class="edge"><title>DECLARACION20&#45;&#45;Lista_id22</title>
<path fill="none" stroke="black" d="M375.003,-216.411C360.963,-204.848 342.371,-189.537 328.694,-178.274"/>
</g>
<!-- Igual25 -->
<g id="node25" class="node"><title>Igual25</title>
<ellipse fill="none" stroke="black" cx="395.147" cy="-162" rx="27" ry="18"/>
<text text-anchor="middle" x="395.147" y="-158.3" font-family="Times New Roman,serif" font-size="14.00">=</text>
</g>
<!-- DECLARACION20&#45;&#45;Igual25 -->
<g id="edge24" class="edge"><title>DECLARACION20&#45;&#45;Igual25</title>
<path fill="none" stroke="black" d="M395.147,-215.697C395.147,-204.846 395.147,-190.917 395.147,-180.104"/>
</g>
<!-- LLAMADA26 -->
<g id="node26" class="node"><title>LLAMADA26</title>
<ellipse fill="none" stroke="black" cx="495.147" cy="-162" rx="54.6905" ry="18"/>
<text text-anchor="middle" x="495.147" y="-158.3" font-family="Times New Roman,serif" font-size="14.00">LLAMADA</text>
</g>
<!-- DECLARACION20&#45;&#45;LLAMADA26 -->
<g id="edge25" class="edge"><title>DECLARACION20&#45;&#45;LLAMADA26</title>
<path fill="none" stroke="black" d="M418.34,-216.765C434.726,-205.294 456.566,-190.007 472.767,-178.666"/>
</g>
<!-- identificador23 -->
<g id="node24" class="node"><title>identificador23</title>
<ellipse fill="none" stroke="black" cx="271.147" cy="-90" rx="27" ry="18"/>
<text text-anchor="middle" x="271.147" y="-86.3" font-family="Times New Roman,serif" font-size="14.00">a</text>
</g>
<!-- Lista_id22&#45;&#45;identificador23 -->
<g id="edge23" class="edge"><title>Lista_id22&#45;&#45;identificador23</title>
<path fill="none" stroke="black" d="M300.905,-144.411C294.688,-133.252 286.526,-118.604 280.323,-107.47"/>
</g>
<!-- identificador27 -->
<g id="node27" class="node"><title>identificador27</title>
<ellipse fill="none" stroke="black" cx="343.147" cy="-90" rx="27" ry="18"/>
<text text-anchor="middle" x="343.147" y="-86.3" font-family="Times New Roman,serif" font-size="14.00">c</text>
</g>
<!-- LLAMADA26&#45;&#45;identificador27 -->
<g id="edge26" class="edge"><title>LLAMADA26&#45;&#45;identificador27</title>
<path fill="none" stroke="black" d="M464.08,-146.934C440.692,-136.313 407.862,-121.339 379.147,-108 374.383,-105.787 369.275,-103.39 364.447,-101.112"/>
</g>
<!-- Parentesis_Abierto28 -->
<g id="node28" class="node"><title>Parentesis_Abierto28</title>
<ellipse fill="none" stroke="black" cx="415.147" cy="-90" rx="27" ry="18"/>
<text text-anchor="middle" x="415.147" y="-86.3" font-family="Times New Roman,serif" font-size="14.00">(</text>
</g>
<!-- LLAMADA26&#45;&#45;Parentesis_Abierto28 -->
<g id="edge27" class="edge"><title>LLAMADA26&#45;&#45;Parentesis_Abierto28</title>
<path fill="none" stroke="black" d="M476.592,-144.765C462.745,-132.648 444.029,-116.272 430.905,-104.788"/>
</g>
<!-- PARAMETROS29 -->
<g id="node29" class="node"><title>PARAMETROS29</title>
<ellipse fill="none" stroke="black" cx="533.147" cy="-90" rx="72.5877" ry="18"/>
<text text-anchor="middle" x="533.147" y="-86.3" font-family="Times New Roman,serif" font-size="14.00">PARAMETROS</text>
</g>
<!-- LLAMADA26&#45;&#45;PARAMETROS29 -->
<g id="edge28" class="edge"><title>LLAMADA26&#45;&#45;PARAMETROS29</title>
<path fill="none" stroke="black" d="M504.346,-144.055C510.232,-133.211 517.848,-119.183 523.769,-108.275"/>
</g>
<!-- Parentesis_Cerrado34 -->
<g id="node33" class="node"><title>Parentesis_Cerrado34</title>
<ellipse fill="none" stroke="black" cx="651.147" cy="-90" rx="27" ry="18"/>
<text text-anchor="middle" x="651.147" y="-86.3" font-family="Times New Roman,serif" font-size="14.00">)</text>
</g>
<!-- LLAMADA26&#45;&#45;Parentesis_Cerrado34 -->
<g id="edge32" class="edge"><title>LLAMADA26&#45;&#45;Parentesis_Cerrado34</title>
<path fill="none" stroke="black" d="M526.827,-147.268C551.077,-136.694 585.317,-121.628 615.147,-108 619.925,-105.817 625.039,-103.432 629.868,-101.157"/>
</g>
<!-- Punto_Coma35 -->
<g id="node34" class="node"><title>Punto_Coma35</title>
<ellipse fill="none" stroke="black" cx="723.147" cy="-90" rx="27" ry="18"/>
<text text-anchor="middle" x="723.147" y="-86.3" font-family="Times New Roman,serif" font-size="14.00">;</text>
</g>
<!-- LLAMADA26&#45;&#45;Punto_Coma35 -->
<g id="edge33" class="edge"><title>LLAMADA26&#45;&#45;Punto_Coma35</title>
<path fill="none" stroke="black" d="M536.206,-149.859C590.432,-135.116 679.954,-110.669 687.147,-108 692.072,-106.173 697.246,-103.932 702.086,-101.685"/>
</g>
<!-- double30 -->
<g id="node30" class="node"><title>double30</title>
<ellipse fill="none" stroke="black" cx="461.147" cy="-18" rx="27" ry="18"/>
<text text-anchor="middle" x="461.147" y="-14.3" font-family="Times New Roman,serif" font-size="14.00">6.6</text>
</g>
<!-- PARAMETROS29&#45;&#45;double30 -->
<g id="edge29" class="edge"><title>PARAMETROS29&#45;&#45;double30</title>
<path fill="none" stroke="black" d="M516.084,-72.411C503.941,-60.6055 487.78,-44.8934 476.134,-33.5705"/>
</g>
<!-- Coma31 -->
<g id="node31" class="node"><title>Coma31</title>
<ellipse fill="none" stroke="black" cx="533.147" cy="-18" rx="27" ry="18"/>
<text text-anchor="middle" x="533.147" y="-14.3" font-family="Times New Roman,serif" font-size="14.00">,</text>
</g>
<!-- PARAMETROS29&#45;&#45;Coma31 -->
<g id="edge30" class="edge"><title>PARAMETROS29&#45;&#45;Coma31</title>
<path fill="none" stroke="black" d="M533.147,-71.6966C533.147,-60.8463 533.147,-46.9167 533.147,-36.1043"/>
</g>
<!-- cadena32 -->
<g id="node32" class="node"><title>cadena32</title>
<ellipse fill="none" stroke="black" cx="688.147" cy="-18" rx="109.681" ry="18"/>
<text text-anchor="middle" x="688.147" y="-14.3" font-family="Times New Roman,serif" font-size="14.00">Llamada desde constructor</text>
</g>
<!-- PARAMETROS29&#45;&#45;cadena32 -->
<g id="edge31" class="edge"><title>PARAMETROS29&#45;&#45;cadena32</title>
<path fill="none" stroke="black" d="M566.398,-73.9832C591.75,-62.5341 626.602,-46.7946 652.522,-35.0886"/>
</g>
<!-- Res_System39 -->
<g id="node36" class="node"><title>Res_System39</title>
<ellipse fill="none" stroke="black" cx="605.147" cy="-162" rx="37.8943" ry="18"/>
<text text-anchor="middle" x="605.147" y="-158.3" font-family="Times New Roman,serif" font-size="14.00">System</text>
</g>
<!-- IMPRIMIR38&#45;&#45;Res_System39 -->
<g id="edge35" class="edge"><title>IMPRIMIR38&#45;&#45;Res_System39</title>
<path fill="none" stroke="black" d="M857.225,-225.159C806.255,-216.172 722.668,-200.063 652.147,-180 646.138,-178.29 639.791,-176.198 633.772,-174.073"/>
</g>
<!-- punto40 -->
<g id="node37" class="node"><title>punto40</title>
<ellipse fill="none" stroke="black" cx="688.147" cy="-162" rx="27" ry="18"/>
<text text-anchor="middle" x="688.147" y="-158.3" font-family="Times New Roman,serif" font-size="14.00">.</text>
</g>
<!-- IMPRIMIR38&#45;&#45;punto40 -->
<g id="edge36" class="edge"><title>IMPRIMIR38&#45;&#45;punto40</title>
<path fill="none" stroke="black" d="M862.438,-222.683C825.564,-213.1 770.575,-197.676 724.147,-180 719.238,-178.131 714.071,-175.873 709.231,-173.623"/>
</g>
<!-- Res_Out41 -->
<g id="node38" class="node"><title>Res_Out41</title>
<ellipse fill="none" stroke="black" cx="760.147" cy="-162" rx="27" ry="18"/>
<text text-anchor="middle" x="760.147" y="-158.3" font-family="Times New Roman,serif" font-size="14.00">out</text>
</g>
<!-- IMPRIMIR38&#45;&#45;Res_Out41 -->
<g id="edge37" class="edge"><title>IMPRIMIR38&#45;&#45;Res_Out41</title>
<path fill="none" stroke="black" d="M875.007,-218.834C847.229,-205.331 806.07,-185.324 781.303,-173.284"/>
</g>
<!-- punto42 -->
<g id="node39" class="node"><title>punto42</title>
<ellipse fill="none" stroke="black" cx="832.147" cy="-162" rx="27" ry="18"/>
<text text-anchor="middle" x="832.147" y="-158.3" font-family="Times New Roman,serif" font-size="14.00">.</text>
</g>
<!-- IMPRIMIR38&#45;&#45;punto42 -->
<g id="edge38" class="edge"><title>IMPRIMIR38&#45;&#45;punto42</title>
<path fill="none" stroke="black" d="M887.448,-216.765C875.151,-204.81 858.59,-188.708 846.804,-177.25"/>
</g>
<!-- Res_Print43 -->
<g id="node40" class="node"><title>Res_Print43</title>
<ellipse fill="none" stroke="black" cx="904.147" cy="-162" rx="27.0966" ry="18"/>
<text text-anchor="middle" x="904.147" y="-158.3" font-family="Times New Roman,serif" font-size="14.00">print</text>
</g>
<!-- IMPRIMIR38&#45;&#45;Res_Print43 -->
<g id="edge39" class="edge"><title>IMPRIMIR38&#45;&#45;Res_Print43</title>
<path fill="none" stroke="black" d="M904.147,-215.697C904.147,-204.846 904.147,-190.917 904.147,-180.104"/>
</g>
<!-- Parentesis_Abierto44 -->
<g id="node41" class="node"><title>Parentesis_Abierto44</title>
<ellipse fill="none" stroke="black" cx="976.147" cy="-162" rx="27" ry="18"/>
<text text-anchor="middle" x="976.147" y="-158.3" font-family="Times New Roman,serif" font-size="14.00">(</text>
</g>
<!-- IMPRIMIR38&#45;&#45;Parentesis_Abierto44 -->
<g id="edge40" class="edge"><title>IMPRIMIR38&#45;&#45;Parentesis_Abierto44</title>
<path fill="none" stroke="black" d="M920.846,-216.765C933.143,-204.81 949.705,-188.708 961.49,-177.25"/>
</g>
<!-- cadena45 -->
<g id="node42" class="node"><title>cadena45</title>
<ellipse fill="none" stroke="black" cx="1102.15" cy="-162" rx="80.6858" ry="18"/>
<text text-anchor="middle" x="1102.15" y="-158.3" font-family="Times New Roman,serif" font-size="14.00">empresion sin salto</text>
</g>
<!-- IMPRIMIR38&#45;&#45;cadena45 -->
<g id="edge41" class="edge"><title>IMPRIMIR38&#45;&#45;cadena45</title>
<path fill="none" stroke="black" d="M939.545,-220.485C973.583,-208.452 1025.02,-190.269 1060.89,-177.585"/>
</g>
<!-- Parentesis_Cerrado46 -->
<g id="node43" class="node"><title>Parentesis_Cerrado46</title>
<ellipse fill="none" stroke="black" cx="1228.15" cy="-162" rx="27" ry="18"/>
<text text-anchor="middle" x="1228.15" y="-158.3" font-family="Times New Roman,serif" font-size="14.00">)</text>
</g>
<!-- IMPRIMIR38&#45;&#45;Parentesis_Cerrado46 -->
<g id="edge42" class="edge"><title>IMPRIMIR38&#45;&#45;Parentesis_Cerrado46</title>
<path fill="none" stroke="black" d="M954.285,-227.768C1012.52,-220.783 1110.97,-206.145 1192.15,-180 1197.28,-178.347 1202.63,-176.123 1207.58,-173.83"/>
</g>
<!-- Punto_Coma47 -->
<g id="node44" class="node"><title>Punto_Coma47</title>
<ellipse fill="none" stroke="black" cx="1300.15" cy="-162" rx="27" ry="18"/>
<text text-anchor="middle" x="1300.15" y="-158.3" font-family="Times New Roman,serif" font-size="14.00">;</text>
</g>
<!-- IMPRIMIR38&#45;&#45;Punto_Coma47 -->
<g id="edge43" class="edge"><title>IMPRIMIR38&#45;&#45;Punto_Coma47</title>
<path fill="none" stroke="black" d="M956.464,-230.137C1027.47,-225.167 1157.72,-212.185 1264.15,-180 1269.31,-178.439 1274.67,-176.252 1279.62,-173.964"/>
</g>
<!-- Res_System50 -->
<g id="node46" class="node"><title>Res_System50</title>
<ellipse fill="none" stroke="black" cx="1383.15" cy="-162" rx="37.8943" ry="18"/>
<text text-anchor="middle" x="1383.15" y="-158.3" font-family="Times New Roman,serif" font-size="14.00">System</text>
</g>
<!-- IMPRIMIR49&#45;&#45;Res_System50 -->
<g id="edge45" class="edge"><title>IMPRIMIR49&#45;&#45;Res_System50</title>
<path fill="none" stroke="black" d="M1605.14,-223.838C1560.65,-214.228 1490.08,-198.033 1430.15,-180 1424.16,-178.2 1417.83,-176.068 1411.81,-173.933"/>
</g>
<!-- punto51 -->
<g id="node47" class="node"><title>punto51</title>
<ellipse fill="none" stroke="black" cx="1466.15" cy="-162" rx="27" ry="18"/>
<text text-anchor="middle" x="1466.15" y="-158.3" font-family="Times New Roman,serif" font-size="14.00">.</text>
</g>
<!-- IMPRIMIR49&#45;&#45;punto51 -->
<g id="edge46" class="edge"><title>IMPRIMIR49&#45;&#45;punto51</title>
<path fill="none" stroke="black" d="M1612.53,-220.882C1582.57,-210.707 1539.23,-195.399 1502.15,-180 1497.3,-177.985 1492.15,-175.669 1487.32,-173.407"/>
</g>
<!-- Res_Out52 -->
<g id="node48" class="node"><title>Res_Out52</title>
<ellipse fill="none" stroke="black" cx="1538.15" cy="-162" rx="27" ry="18"/>
<text text-anchor="middle" x="1538.15" y="-158.3" font-family="Times New Roman,serif" font-size="14.00">out</text>
</g>
<!-- IMPRIMIR49&#45;&#45;Res_Out52 -->
<g id="edge47" class="edge"><title>IMPRIMIR49&#45;&#45;Res_Out52</title>
<path fill="none" stroke="black" d="M1625.06,-217.811C1604.66,-204.944 1575.81,-186.75 1557.04,-174.914"/>
</g>
<!-- punto53 -->
<g id="node49" class="node"><title>punto53</title>
<ellipse fill="none" stroke="black" cx="1610.15" cy="-162" rx="27" ry="18"/>
<text text-anchor="middle" x="1610.15" y="-158.3" font-family="Times New Roman,serif" font-size="14.00">.</text>
</g>
<!-- IMPRIMIR49&#45;&#45;punto53 -->
<g id="edge48" class="edge"><title>IMPRIMIR49&#45;&#45;punto53</title>
<path fill="none" stroke="black" d="M1639.71,-216.055C1633.48,-204.887 1625.38,-190.343 1619.23,-179.307"/>
</g>
<!-- Res_Print54 -->
<g id="node50" class="node"><title>Res_Print54</title>
<ellipse fill="none" stroke="black" cx="1689.15" cy="-162" rx="33.5952" ry="18"/>
<text text-anchor="middle" x="1689.15" y="-158.3" font-family="Times New Roman,serif" font-size="14.00">println</text>
</g>
<!-- IMPRIMIR49&#45;&#45;Res_Print54 -->
<g id="edge49" class="edge"><title>IMPRIMIR49&#45;&#45;Res_Print54</title>
<path fill="none" stroke="black" d="M1658.83,-216.055C1665.21,-204.887 1673.52,-190.343 1679.83,-179.307"/>
</g>
<!-- Parentesis_Abierto55 -->
<g id="node51" class="node"><title>Parentesis_Abierto55</title>
<ellipse fill="none" stroke="black" cx="1768.15" cy="-162" rx="27" ry="18"/>
<text text-anchor="middle" x="1768.15" y="-158.3" font-family="Times New Roman,serif" font-size="14.00">(</text>
</g>
<!-- IMPRIMIR49&#45;&#45;Parentesis_Abierto55 -->
<g id="edge50" class="edge"><title>IMPRIMIR49&#45;&#45;Parentesis_Abierto55</title>
<path fill="none" stroke="black" d="M1674.68,-217.983C1696.8,-204.967 1728.36,-186.407 1748.54,-174.531"/>
</g>
<!-- cadena56 -->
<g id="node52" class="node"><title>cadena56</title>
<ellipse fill="none" stroke="black" cx="1897.15" cy="-162" rx="83.6854" ry="18"/>
<text text-anchor="middle" x="1897.15" y="-158.3" font-family="Times New Roman,serif" font-size="14.00">empresion con salto</text>
</g>
<!-- IMPRIMIR49&#45;&#45;cadena56 -->
<g id="edge51" class="edge"><title>IMPRIMIR49&#45;&#45;cadena56</title>
<path fill="none" stroke="black" d="M1688.72,-221.831C1732.07,-209.595 1801.64,-189.959 1848.34,-176.776"/>
</g>
<!-- Parentesis_Cerrado57 -->
<g id="node53" class="node"><title>Parentesis_Cerrado57</title>
<ellipse fill="none" stroke="black" cx="2026.15" cy="-162" rx="27" ry="18"/>
<text text-anchor="middle" x="2026.15" y="-158.3" font-family="Times New Roman,serif" font-size="14.00">)</text>
</g>
<!-- IMPRIMIR49&#45;&#45;Parentesis_Cerrado57 -->
<g id="edge52" class="edge"><title>IMPRIMIR49&#45;&#45;Parentesis_Cerrado57</title>
<path fill="none" stroke="black" d="M1701.02,-229.582C1768.77,-224.073 1890.48,-210.577 1990.15,-180 1995.3,-178.419 2000.66,-176.223 2005.61,-173.934"/>
</g>
<!-- Punto_Coma58 -->
<g id="node54" class="node"><title>Punto_Coma58</title>
<ellipse fill="none" stroke="black" cx="2098.15" cy="-162" rx="27" ry="18"/>
<text text-anchor="middle" x="2098.15" y="-158.3" font-family="Times New Roman,serif" font-size="14.00">;</text>
</g>
<!-- IMPRIMIR49&#45;&#45;Punto_Coma58 -->
<g id="edge53" class="edge"><title>IMPRIMIR49&#45;&#45;Punto_Coma58</title>
<path fill="none" stroke="black" d="M1702.05,-231.486C1781.68,-228.037 1936.39,-216.764 2062.15,-180 2067.32,-178.487 2072.69,-176.318 2077.64,-174.033"/>
</g>
</g>
</svg>
